<?xml version="1.0"?>
<svg xmlns="http://www.w3.org/2000/svg" viewBox="0 0 24 24" enable-background="new 0 0 24 24">
    <path d="M 12 4 C 8.87 4 6.34375 6.52625 6.34375 9.65625 C 6.34375 12.78525 8.87 15.34375 12 15.34375 C 15.13 15.34375 17.65625 12.78625 17.65625 9.65625 C 17.65625 6.52625 15.13 4 12 4 z M 4 7 C 2.343 7 1 8.343 1 10 C 1 11.657 2.343 13 4 13 C 4.72 13 5.358 12.7345 5.875 12.3125 C 5.768 12.0645 5.702 11.8245 5.625 11.5625 C 5.218 11.9905 4.638 12.25 4 12.25 C 3.119 12.25 2.369 11.738 2 11 L 5.46875 11 C 5.38075 10.568 5.34375 10.11425 5.34375 9.65625 C 5.34375 8.90625 5.4575 8.20425 5.6875 7.53125 C 5.2055 7.20125 4.628 7 4 7 z M 20 7 C 19.372 7 18.7945 7.20125 18.3125 7.53125 C 18.5425 8.20425 18.65625 8.90625 18.65625 9.65625 C 18.65625 10.11425 18.61925 10.568 18.53125 11 L 22 11 C 21.631 11.738 20.882 12.25 20 12.25 C 19.362 12.25 18.782 11.9905 18.375 11.5625 C 18.298 11.8245 18.232 12.0645 18.125 12.3125 C 18.642 12.7345 19.28 13 20 13 C 21.657 13 23 11.657 23 10 C 23 8.343 21.657 7 20 7 z M 8.21875 11.5625 L 15.78125 11.5625 C 15.08325 12.9565 13.665 13.90625 12 13.90625 C 10.335 13.90625 8.91575 12.9575 8.21875 11.5625 z M 2.3125 13.59375 C 1.2305 13.87775 0.389 14.551 0 16 L 6.78125 16 C 7.11525 15.825 7.46575 15.66125 7.84375 15.53125 C 7.40975 14.39425 6.6485 13.84675 5.6875 13.59375 C 5.1865 13.86275 4.607 14 4 14 C 3.392 14 2.8135 13.86175 2.3125 13.59375 z M 18.3125 13.59375 C 17.3515 13.84675 16.59025 14.39425 16.15625 15.53125 C 16.53425 15.66125 16.88475 15.825 17.21875 16 L 24 16 C 23.611 14.551 22.7695 13.87775 21.6875 13.59375 C 21.1865 13.86175 20.608 14 20 14 C 19.393 14 18.8135 13.86275 18.3125 13.59375 z M 8.71875 16.3125 C 6.61075 16.8665 4.97575 18.178 4.21875 21 L 19.78125 21 C 19.02425 18.177 17.39125 16.8655 15.28125 16.3125 C 14.30525 16.8355 13.184 17.125 12 17.125 C 10.818 17.125 9.69475 16.8365 8.71875 16.3125 z"/>
</svg>
